Coordinates
version=1
nRows=43
nColumns=12
inDegrees=yes

Units are S.I. units (second, meters, Newtons, ...)
Angles are in degrees

endheader
time	SC_y	SC_z	SC_x	AC_y	AC_z	AC_x	GH_y	GH_z	GH_yy	EL_x	PS_y
       0.0              -42.38          22.23          40.34          42.51          -11.0         -17.16         -48.57          65.05         -91.79          35.01          114.0
   0.03673              -42.38          22.23          40.34          42.51          -11.0         -17.15         -48.59          65.04         -91.76          35.01          114.0
   0.07346              -42.37          22.22          40.34          42.51         -10.99         -17.15          -48.6          65.04         -91.74          35.01          114.0
    0.1102              -42.37          22.22          40.33          42.51         -10.99         -17.14         -48.62          65.04         -91.71          35.01          114.0
    0.1469              -42.36          22.21          40.33          42.52         -10.99         -17.14         -48.64          65.03         -91.69          35.01          113.9
    0.1837              -42.36          22.21          40.33          42.52         -10.99         -17.13         -48.66          65.03         -91.66          35.01          113.9
    0.2204              -42.35          22.21          40.33          42.52         -10.99         -17.13         -48.68          65.02         -91.63          35.01          113.9
    0.2571              -42.35           22.2          40.32          42.52         -10.99         -17.12         -48.71          65.02          -91.6          35.01          113.9
    0.2939              -42.34           22.2          40.32          42.53         -10.99         -17.11         -48.73          65.01         -91.56          35.01          113.9
    0.3306              -42.33          22.19          40.32          42.53         -10.99         -17.11         -48.76          65.01         -91.52          35.01          113.9
    0.3673              -42.32          22.18          40.31          42.54         -10.99          -17.1         -48.78           65.0         -91.48          35.01          113.9
    0.4041              -42.32          22.18          40.31          42.54         -10.99         -17.09         -48.82           65.0         -91.44          35.01          113.9
    0.4408              -42.31          22.17          40.31          42.54         -10.98         -17.08         -48.85          64.99         -91.39          35.01          113.9
    0.4775               -42.3          22.16           40.3          42.55         -10.98         -17.07         -48.88          64.98         -91.34          35.01          113.9
    0.5143              -42.29          22.15           40.3          42.55         -10.98         -17.06         -48.92          64.97         -91.28          35.01          113.9
     0.551              -42.28          22.15          40.29          42.56         -10.98         -17.05         -48.96          64.96         -91.22           35.0          113.9
    0.5877              -42.26          22.14          40.29          42.57         -10.98         -17.03         -49.01          64.96         -91.16           35.0          113.9
    0.6244              -42.25          22.12          40.28          42.57         -10.98         -17.02         -49.06          64.95         -91.09           35.0          113.9
    0.6612              -42.24          22.11          40.27          42.58         -10.97          -17.0         -49.11          64.93         -91.01           35.0          113.8
    0.6979              -42.22           22.1          40.27          42.59         -10.97         -16.99         -49.17          64.92         -90.93           35.0          113.8
    0.7346               -42.2          22.09          40.26           42.6         -10.97         -16.97         -49.24          64.91         -90.83           35.0          113.8
    0.7714              -42.18          22.07          40.25          42.61         -10.97         -16.95         -49.31          64.89         -90.73           35.0          113.8
    0.8081              -42.16          22.05          40.24          42.62         -10.96         -16.93         -49.39          64.88         -90.62          34.99          113.8
    0.8448              -42.14          22.04          40.23          42.63         -10.96          -16.9         -49.48          64.86         -90.49          34.99          113.8
    0.8816              -42.11          22.01          40.22          42.65         -10.96         -16.87         -49.57          64.84         -90.36          34.99          113.7
    0.9183              -42.08          21.99           40.2          42.66         -10.95         -16.84         -49.68          64.82          -90.2          34.99          113.7
     0.955              -42.05          21.97          40.19          42.68         -10.95         -16.81          -49.8          64.79         -90.03          34.98          113.7
    0.9918              -42.01          21.94          40.17           42.7         -10.94         -16.77         -49.94          64.77         -89.83          34.98          113.7
     1.029              -41.97           21.9          40.15          42.72         -10.93         -16.72         -50.09          64.73         -89.61          34.98          113.6
     1.065              -41.92          21.87          40.13          42.74         -10.93         -16.67         -50.27           64.7         -89.36          34.97          113.6
     1.102              -41.87          21.82           40.1          42.77         -10.92         -16.62         -50.47          64.66         -89.07          34.97          113.5
     1.139              -41.81          21.77          40.07           42.8         -10.91         -16.55          -50.7          64.61         -88.75          34.96          113.5
     1.175              -41.73          21.72          40.04          42.84          -10.9         -16.48         -50.97          64.56         -88.37          34.96          113.4
     1.212              -41.65          21.65           40.0          42.88         -10.89         -16.39         -51.27          64.49         -87.93          34.95          113.4
     1.249              -41.55          21.57          39.96          42.94         -10.87         -16.29         -51.63          64.42         -87.41          34.94          113.3
     1.286              -41.44          21.48           39.9           43.0         -10.85         -16.16         -52.06          64.33          -86.8          34.93          113.2
     1.322               -41.3          21.37          39.84          43.07         -10.83         -16.02         -52.57          64.23         -86.08          34.92          113.1
     1.359              -41.13          21.24          39.76          43.15         -10.81         -15.85         -53.17           64.1         -85.21           34.9          112.9
     1.396              -40.94          21.09          39.67          43.25         -10.78         -15.64          -53.9          63.95         -84.17          34.89          112.8
     1.433              -40.69           20.9          39.56          43.38         -10.74         -15.38          -54.8          63.77         -82.89          34.86          112.6
     1.469              -40.39          20.66          39.42          43.53          -10.7         -15.07         -55.91          63.55         -81.31          34.84          112.3
     1.506              -40.02          20.36          39.25          43.73         -10.64         -14.67         -57.28          63.26         -79.34          34.81          112.0
     1.543              -39.55          19.99          39.03          43.97         -10.57         -14.18         -59.02          62.91         -76.86          34.76          111.6
